<?xml version="1.0" encoding="utf-8"?>
<!-- Generator: Adobe Illustrator 27.5.0, SVG Export Plug-In . SVG Version: 6.00 Build 0)  -->
<svg version="1.1" xmlns="http://www.w3.org/2000/svg" xmlns:xlink="http://www.w3.org/1999/xlink" x="0px" y="0px"
	 viewBox="0 0 500 500" style="enable-background:new 0 0 500 500;" xml:space="preserve">
<g id="BACKGROUND">
	<g>
		<rect style="fill:#FFFFFF;" width="500" height="500"/>
	</g>
</g>
<g id="OBJECTS">
	<path style="fill:#DFE6EE;" d="M448.882,203.492c-4.417-28.9-15.484-56.411-34.213-79.191
		c-24.489-29.786-59.59-50.198-97.144-58.95c-61.786-14.399-131.28,0.904-182.561,37.819
		c-43.278,31.154-77.923,79.102-84.776,132.662c-6.229,48.682,10.148,97.704,41.696,134.893
		c69.51,81.935,197.24,91.821,281.185,26.324c19.52-15.23,35.992-34.156,48.656-55.415
		C445.572,301.599,456.096,250.694,448.882,203.492z"/>
	<g>
		<path style="fill:#313B59;" d="M183.961,415.415c0,0,7.087-20.681,10.367-30.746c3.28-10.064,21.689-66.913,24.724-75.892
			c3.035-8.979,14.124-43.521,14.897-45.159c0.772-1.638,0.22-2.165,1.833-2.472c1.613-0.307,43.182-0.717,48.303-1.104
			c5.121-0.387,100.972-0.148,108.246-0.854c5.911-0.574,42.644-3.636,57.482-3.634c3.42,0,7.018,2.429,7.018,2.429
			s2.196,1.57,2.227,2.919c0.031,1.349-1.115,10.285-1.599,12.726c-0.484,2.441-15.996,79.742-16.419,84.882
			c-0.422,5.139-13.288,61.382-14.054,63.289c-0.767,1.908-16.88-11.014-38.443-9.442c-21.563,1.573-48.364-1.594-59.41-0.532
			c-11.045,1.062-95.759,3.809-107.632,4.08c-11.873,0.271-33.43,2.114-35.055,1.881c-1.625-0.233-2.428,0.099-2.447-0.754
			C183.961,415.415,183.961,415.415,183.961,415.415z"/>
		<path style="fill:#4C5980;" d="M176.943,412.986c0,0,7.087-20.681,10.367-30.746c3.28-10.065,21.689-66.913,24.724-75.892
			c3.035-8.979,14.124-43.521,14.897-45.159c0.773-1.638,0.221-2.165,1.833-2.472c1.613-0.307,43.182-0.717,48.303-1.104
			c5.121-0.387,100.972-0.148,108.246-0.854c7.273-0.706,62.868-1.707,64.5-1.204c1.632,0.503,2.196,1.57,2.227,2.919
			c0.031,1.349-1.115,10.285-1.599,12.726c-0.484,2.441-15.996,79.742-16.419,84.882c-0.422,5.139-10.487,49.108-11.253,51.015
			c-0.766,1.907-19.68,1.26-41.244,2.833c-21.563,1.573-48.364-1.594-59.409-0.532c-11.045,1.062-95.759,3.809-107.632,4.08
			c-11.873,0.271-33.43,2.114-35.056,1.881c-1.625-0.233-2.428,0.099-2.447-0.754C176.943,412.986,176.943,412.986,176.943,412.986z
			"/>
		<path style="fill:#7991D1;" d="M312.1,398.646c-3.555-0.175-7.148-0.04-10.708-0.048c-3.569-0.008-7.138-0.016-10.708-0.021
			c-3.482-0.005-6.965-0.017-10.447-0.014c-1.828,0.002-3.656,0.018-5.484,0.028c-1.604,0.009-3.513-0.245-5.04,0.303
			c-0.279,0.1-0.278,0.466,0,0.567c1.458,0.531,3.245,0.307,4.779,0.322c1.828,0.018,3.656,0.041,5.485,0.053
			c3.569,0.022,7.139,0.023,10.708,0.033c3.482,0.011,6.964,0.018,10.447,0.026c3.646,0.008,7.327,0.162,10.969,0
			C312.905,399.86,312.905,398.685,312.1,398.646z"/>
		<path style="fill:#7991D1;" d="M328.094,398.588c-1.858,0.01-3.717,0.019-5.575,0.029c-0.912,0.005-1.823,0.007-2.735,0.036
			c-0.903,0.029-1.778-0.017-2.611,0.362c-0.247,0.112-0.251,0.546,0,0.656c0.807,0.357,1.635,0.315,2.506,0.334
			c0.947,0.021,1.893,0.015,2.84,0.01c1.858-0.01,3.717-0.019,5.575-0.029C328.993,399.981,328.994,398.584,328.094,398.588z"/>
		<path style="fill:#A1B0BA;" d="M220.801,423.825c0,0-2.429,0.405-3.644-0.607c-1.215-1.012-2.463-1.586-2.699-4.487
			c-0.236-2.902-0.236-9.481,0.068-10.493c0.304-1.012,1.316-2.834,2.834-3.34c1.518-0.506,1.923-0.405,3.037-0.405
			c0,0,25.406-0.304,28.139-0.202c2.733,0.101,43.828,0,44.739,0c0.911,0,88.769,0.101,88.769,0.101l3.644,0.101l37.35-0.202
			c0,0,1.215-0.202,2.328,0.911c1.113,1.113,1.215,1.518,1.518,2.328c0.304,0.81,0.405,1.012,0.27,2.024
			c-0.171,1.28,0.034,8.401-0.168,9.818c-0.203,1.417-0.506,1.923-1.417,2.935c-0.911,1.012-1.215,1.012-2.227,1.316
			c-1.012,0.304-1.822,0.506-2.733,0.405c-0.911-0.101-32.592-0.202-32.592-0.202l-89.376-0.202l-53.342,0.202
			C245.296,423.825,222.016,423.791,220.801,423.825z"/>
		<path style="fill:#BFCAD4;" d="M60.065,423.825c0,0-2.429,0.405-3.644-0.607c-1.215-1.012-2.463-1.586-2.699-4.487
			c-0.236-2.902-0.236-9.481,0.068-10.493c0.304-1.012,1.316-2.834,2.834-3.34c1.518-0.506,1.923-0.405,3.037-0.405
			c0,0,25.406-0.304,28.139-0.202c2.733,0.101,43.828,0,44.739,0c0.911,0,88.769,0.101,88.769,0.101l3.644,0.101l37.35-0.202
			c0,0,1.215-0.202,2.328,0.911c1.113,1.113,1.215,1.518,1.518,2.328c0.304,0.81,0.152,0.86,0.27,2.024
			c0.13,1.285,0.034,8.401-0.169,9.818c-0.203,1.417-0.506,1.923-1.417,2.935s-1.215,1.012-2.227,1.316
			c-1.012,0.304-1.822,0.506-2.733,0.405c-0.911-0.101-32.593-0.202-32.593-0.202l-89.376-0.202l-53.342,0.202
			C84.56,423.825,61.28,423.791,60.065,423.825z"/>
		<g>
			<defs>
				<path id="XMLID_1_" d="M200.024,392.981c0,0-4.753,0.177-5.571-0.098c-0.819-0.274-1.539,0.059-1.531-1.29
					c0.007-1.35,2.241-9.705,3.627-13.207c1.386-3.501,13.625-41.494,14.741-45.537c1.116-4.043,13.903-42.302,15.289-45.804
					c1.386-3.501,5.294-18.056,6.124-19.941c0.831-1.885,0.831-1.885,2.199-2.147c1.369-0.263,2.905,0.016,4.546,0.025
					c1.663,0.009,35.11-0.619,38.393-0.871c3.283-0.252,93.238-1.016,98.432-0.718c5.194,0.298,62.958-1.173,64.599-1.164
					c1.641,0.009,5.131-0.579,5.122,1.04c-0.009,1.619-0.182,2.057-0.739,3.944c-0.557,1.886-6.731,30.937-7.642,35.015
					c-0.833,3.728-15.139,68.478-15.146,69.827c-0.007,1.35-3.937,19.953-3.937,19.953s-0.835,2.762-2.203,2.755
					c-1.367-0.007-6.221-0.034-8.203-0.112c-1.471-0.058-60.707-0.599-65.902-0.628c-5.196-0.028-92.976-0.504-96.258-0.522
					C242.683,393.482,200.024,392.981,200.024,392.981z"/>
			</defs>
			<use xlink:href="#XMLID_1_"  style="overflow:visible;fill:#D66EC0;"/>
			<clipPath id="XMLID_00000014635704460899702280000013546689617807158201_">
				<use xlink:href="#XMLID_1_"  style="overflow:visible;"/>
			</clipPath>
			<g style="clip-path:url(#XMLID_00000014635704460899702280000013546689617807158201_);">
				<path style="fill:#B345B5;" d="M439.93,392.068c1.405-3.94,30.202-63.432,32.888-70.524c0.432-1.141,1.287-3.104,2.414-5.593
					c-1.824,2.6-3.801,5.201-5.952,7.789c-16.933,20.38-44.272,39.165-68.31,45.112c-14.578,3.606-26,1.551-35.252-2.442
					c-10.218-4.41-18.515-10.775-26.956-16.826c-16.839-12.071-33.284-24.805-55.16-32.128c-19.059-6.381-42.667-8.795-70.113-2.896
					c-9.766,18.298-26.715,49.134-30.554,55.444c-5.033,8.274-19.953,38.217-20.459,40.187c-0.506,1.97,5.118,1.182,6.296,1.182
					l61.048,2.758c5.107,0,102.298,2.758,107.809,3.94c5.511,1.182,82.924,3.546,83.844,3.94c0.92,0.394,3.794-0.394,3.794-0.394
					S438.525,396.008,439.93,392.068z"/>
				<path style="fill:#EBA7DC;" d="M377.201,403.301c10.959-1.268,22.297-3.615,33.93-6.418c5.835-1.406,11.711-3.295,17.683-5.177
					c4.389-1.382,8.813-2.832,13.265-4.47c0.736-1.591,1.629-3.502,2.644-5.662c-2.08,0.763-4.161,1.535-6.234,2.253
					c-2.851,0.987-5.73,2.032-8.552,2.898c-3.001,0.921-5.953,1.663-8.935,2.519c-11.667,3.35-23.08,5.817-34.025,7.361
					c-21.785,3.073-41.941,2.977-59.172-0.755c-8.859-1.919-16.907-4.771-24.069-8.491c-7.849-4.076-14.684-9.092-21.56-14.048
					c-13.646-9.835-27.819-19.63-48.598-22.231c-9.066-1.135-19.37-0.671-30.537,1.72c-3.935,0.843-8.034,1.929-12.202,3.289
					c-1.257,2.259-2.425,4.35-3.474,6.213c2.483-0.866,4.948-1.643,7.378-2.307c10.915-2.982,21.053-4.021,30.09-3.453
					c21.241,1.335,35.604,10.849,48.942,20.421c6.924,4.969,13.748,10.029,21.381,14.363c6.994,3.972,14.79,7.162,23.499,9.368
					C335.589,404.985,355.51,405.81,377.201,403.301z"/>
				<path style="fill:#EBA7DC;" d="M269.778,399.358c-9.686-7.349-18.32-15.683-30.138-21.124
					c-5.882-2.708-12.605-4.575-20.339-5.158c-7.09-0.534-14.807,0.272-23.091,1.807c-5.939,1.101-12.418,2.945-18.875,5.284
					c-0.896,1.702-1.829,3.494-2.773,5.327c0.838-0.303,1.675-0.604,2.507-0.877c4.28-1.409,8.393-2.47,12.517-3.404
					c8.06-1.825,15.522-2.646,22.528-2.486c7.438,0.17,13.859,1.767,19.54,4.049c12.018,4.828,20.557,12.929,29.875,20.203
					c6.012,4.693,12.556,8.918,19.666,12.602c6.633,0.215,13.315,0.44,19.651,0.667
					C289.197,411.871,278.815,406.215,269.778,399.358z"/>
			</g>
		</g>
		<path style="fill:#313B59;" d="M421.931,412.993c-0.145-0.517-0.406-0.966-0.785-1.347c-0.206-0.159-0.412-0.318-0.618-0.477
			c-0.476-0.276-0.99-0.415-1.54-0.417c-0.42-0.016-0.812,0.072-1.176,0.263c-0.378,0.123-0.706,0.333-0.982,0.631
			c-0.298,0.276-0.508,0.604-0.631,0.982c-0.191,0.364-0.279,0.756-0.263,1.176c0.036,0.27,0.073,0.541,0.109,0.811
			c0.145,0.517,0.407,0.966,0.785,1.347c0.206,0.159,0.412,0.318,0.618,0.477c0.476,0.276,0.99,0.415,1.54,0.417
			c0.42,0.016,0.812-0.072,1.176-0.263c0.378-0.123,0.706-0.333,0.982-0.631c0.298-0.276,0.508-0.604,0.631-0.982
			c0.191-0.364,0.279-0.756,0.263-1.176C422.004,413.534,421.968,413.263,421.931,412.993z"/>
		<path style="fill:#313B59;" d="M358.864,413.084c-7.984-0.182-16-0.063-23.989-0.1c-3.995-0.018-8.002-0.036-11.994-0.014
			c-1.913,0.011-3.823,0.023-5.736,0c-2.086-0.025-4.177,0.134-6.258-0.003c-2.305-0.151-2.303,3.742,0,3.579
			c1.995-0.141,3.997,0.004,5.997-0.032c2.001-0.036,3.997-0.045,5.997-0.035c3.991,0.021,8.001-0.039,11.994-0.079
			c7.989-0.079,16.006-0.003,23.989-0.229C360.849,416.117,360.855,413.13,358.864,413.084z"/>
		<path style="fill:#313B59;" d="M374.856,413.455c-0.728,0.029-1.438-0.017-2.167-0.061c-0.623-0.038-1.342-0.004-1.9-0.046
			c-0.23-0.017-0.451-0.088-0.684-0.077c-0.195,0.009-0.388,0.06-0.583,0.07c-0.33,0.016-0.67-0.02-1-0.031
			c-0.729-0.024-1.437,0.051-2.167-0.009c-0.717-0.059-1.404,0.674-1.373,1.373c0.03,0.677,0.608,1.457,1.373,1.373
			c0.728-0.08,1.438-0.025,2.167-0.068c0.331-0.02,0.668-0.064,1-0.058c0.167,0.003,0.333,0.041,0.5,0.047
			c0.264,0.009,0.507-0.048,0.767-0.079c0.565-0.068,1.28-0.053,1.9-0.107c0.333-0.029,0.668-0.032,1-0.064
			c0.15-0.014,0.355-0.052,0.5-0.064c0.218-0.017,0.448,0.006,0.667,0.008C376.279,415.68,376.274,413.399,374.856,413.455z"/>
		<path style="fill:#4C5980;" d="M85.54,414.657c-0.105-0.374-0.294-0.698-0.567-0.973c-0.149-0.115-0.298-0.23-0.446-0.345
			c-0.344-0.2-0.715-0.3-1.113-0.301c-0.304-0.012-0.587,0.052-0.85,0.19c-0.273,0.089-0.51,0.241-0.71,0.456
			c-0.215,0.2-0.367,0.436-0.456,0.71c-0.138,0.263-0.201,0.546-0.19,0.85c0.026,0.195,0.052,0.391,0.079,0.586
			c0.105,0.373,0.294,0.698,0.567,0.973c0.149,0.115,0.298,0.23,0.446,0.345c0.344,0.199,0.715,0.3,1.113,0.301
			c0.304,0.012,0.587-0.052,0.85-0.19c0.273-0.089,0.51-0.241,0.71-0.456c0.215-0.2,0.367-0.436,0.456-0.71
			c0.138-0.263,0.201-0.546,0.19-0.85C85.592,415.048,85.566,414.852,85.54,414.657z"/>
		<path style="fill:#4C5980;" d="M95.945,414.693c-0.119-0.424-0.333-0.792-0.643-1.104c-0.169-0.13-0.338-0.261-0.506-0.391
			c-0.39-0.226-0.811-0.34-1.263-0.341c-0.344-0.013-0.666,0.059-0.964,0.215c-0.31,0.101-0.578,0.273-0.805,0.517
			c-0.244,0.227-0.416,0.495-0.517,0.805c-0.157,0.298-0.228,0.619-0.215,0.964c0.03,0.222,0.06,0.443,0.089,0.665
			c0.119,0.424,0.333,0.792,0.643,1.104c0.169,0.13,0.338,0.261,0.506,0.391c0.39,0.226,0.811,0.34,1.262,0.341
			c0.344,0.013,0.666-0.059,0.964-0.215c0.31-0.101,0.578-0.273,0.805-0.517c0.244-0.227,0.416-0.495,0.517-0.805
			c0.157-0.298,0.228-0.619,0.215-0.964C96.005,415.137,95.975,414.915,95.945,414.693z"/>
		<path style="fill:#4C5980;" d="M105.868,414.576c-0.115-0.411-0.324-0.768-0.624-1.071c-0.164-0.126-0.327-0.253-0.491-0.38
			c-0.379-0.219-0.787-0.33-1.225-0.331c-0.334-0.013-0.646,0.057-0.935,0.209c-0.301,0.098-0.561,0.265-0.781,0.502
			c-0.237,0.22-0.404,0.48-0.502,0.781c-0.152,0.289-0.222,0.601-0.209,0.935c0.029,0.215,0.058,0.43,0.087,0.645
			c0.115,0.411,0.323,0.768,0.624,1.071c0.164,0.126,0.327,0.253,0.491,0.379c0.379,0.22,0.787,0.33,1.225,0.331
			c0.334,0.013,0.646-0.057,0.935-0.209c0.301-0.098,0.561-0.265,0.781-0.502c0.237-0.22,0.404-0.48,0.502-0.781
			c0.152-0.289,0.222-0.601,0.209-0.935C105.925,415.006,105.896,414.791,105.868,414.576z"/>
		<path style="fill:#4C5980;" d="M173.867,414.053c-7.912-0.17-15.836-0.414-23.749-0.394c-3.91,0.01-7.84,0.008-11.747-0.065
			c-1.915-0.035-3.824-0.079-5.742-0.095c-2.068-0.017-4.208,0.059-6.262-0.149c-1.905-0.192-1.954,3.091-0.072,2.941
			c3.958-0.315,8.04,0.047,12.01,0.006c3.9-0.04,7.842,0.089,11.745,0.18c7.912,0.184,15.841,0.105,23.757,0.1
			C175.427,416.576,175.497,414.088,173.867,414.053z"/>
	</g>
	<g>
		<path style="fill:#EB9921;" d="M156.064,171.941c0-0.003-0.005,0-0.007,0.001c0.338-6.605,0.128-13.352,0.149-19.962
			c0.021-6.912,0.016-13.825,0.029-20.738c0.027-13.825,0.081-27.649,0.11-41.473c0.017-7.776,0.037-15.553,0.028-23.329
			c-0.001-0.444-0.208-0.683-0.434-0.731c-0.087-0.093-0.188-0.164-0.321-0.169c-14.579-0.582-29.229-0.75-43.945-0.979
			c-14.711-0.23-29.495-0.129-44.341,0.062c-8.44,0.108-16.91,0.098-25.391,0.543c-0.286,0.015-0.466,0.265-0.542,0.573
			c-0.213,0.06-0.4,0.286-0.401,0.707c-0.103,28.151-0.008,56.302-0.043,84.454c-0.005,3.849,0.005,7.698,0.01,11.547
			c0.005,4.055-0.101,8.168,0.127,12.208c0.026,0.454,0.369,0.526,0.513,0.229c0.034,0.018,0.067,0.041,0.107,0.047
			c3.73,0.62,104.745-1.038,113.016-1.323C155.427,173.584,155.973,173.456,156.064,171.941z"/>
		<path style="fill:#4C5980;" d="M145.419,84.835c0,0-0.002,0-0.003,0c0.154-0.323,0.058-0.654,0.068-0.978
			c0.01-0.339,0.007-0.677,0.013-1.016c0.012-0.677,0.037-1.354,0.05-2.032c0.008-0.381,0.017-0.762,0.013-1.143
			c0-0.022-0.095-0.033-0.198-0.036c-0.04-0.005-0.086-0.008-0.146-0.008c-6.638-0.029-13.277-0.037-19.916-0.048
			c-6.606-0.011-13.215-0.006-19.821,0.003c-3.742,0.005-7.487,0.005-11.228,0.026c-0.126,0.001-0.205,0.013-0.239,0.028
			c-0.094,0.003-0.176,0.014-0.177,0.034c-0.045,1.355-0.004,2.709-0.019,4.064c-0.002,0.185,0.002,0.37,0.004,0.556
			c0.002,0.195-0.045,0.393,0.056,0.588c0.011,0.022,0.163,0.026,0.226,0.011c0.015,0.001,0.029,0.002,0.047,0.002
			c1.644,0.033,3.316,0.031,4.969,0.039c1.689,0.009,3.378,0.014,5.068,0.02c3.314,0.011,6.628,0.021,9.943,0.025
			c6.661,0.008,13.324,0.007,19.984-0.013c3.768-0.011,6.927-0.035,10.695-0.042C145.128,84.915,145.377,84.909,145.419,84.835z"/>
		<path style="fill:#4C5980;" d="M122.49,131.627c0,0-0.003,0-0.004,0c0.215-0.481,0.082-0.974,0.095-1.456
			c0.014-0.504,0.01-1.008,0.019-1.512c0.017-1.008,0.051-2.017,0.07-3.025c0.011-0.567,0.023-1.134,0.018-1.702
			c0-0.032-0.133-0.05-0.276-0.053c-0.055-0.007-0.12-0.012-0.204-0.012c-9.252-0.042-18.507-0.055-27.761-0.071
			c-9.208-0.017-18.42-0.009-27.628,0.004c-5.216,0.008-10.437,0.007-15.65,0.039c-0.176,0.001-0.286,0.019-0.332,0.041
			c-0.131,0.004-0.245,0.02-0.246,0.051c-0.063,2.017-0.005,4.034-0.027,6.051c-0.003,0.276,0.003,0.551,0.006,0.827
			c0.003,0.29-0.062,0.585,0.078,0.875c0.016,0.033,0.227,0.038,0.315,0.017c0.021,0.001,0.041,0.003,0.066,0.003
			c2.291,0.049,4.622,0.046,6.927,0.059c2.354,0.013,4.709,0.022,7.064,0.03c4.619,0.016,9.239,0.032,13.859,0.037
			c9.285,0.012,18.572,0.01,27.856-0.02c5.252-0.017,9.656-0.052,14.908-0.062C122.085,131.746,122.432,131.737,122.49,131.627z"/>
		<path style="fill:#4C5980;" d="M115.823,146.286c0,0-0.003,0-0.004,0c0.195-0.481,0.074-0.974,0.086-1.456
			c0.012-0.504,0.009-1.008,0.017-1.513c0.016-1.008,0.047-2.017,0.064-3.025c0.01-0.567,0.021-1.135,0.016-1.702
			c0-0.032-0.12-0.05-0.251-0.053c-0.05-0.007-0.108-0.012-0.185-0.012c-8.395-0.043-16.792-0.055-25.188-0.072
			c-8.355-0.017-16.713-0.009-25.067,0.004c-4.732,0.008-9.469,0.007-14.2,0.039c-0.159,0.001-0.26,0.019-0.302,0.041
			c-0.119,0.004-0.223,0.021-0.223,0.051c-0.057,2.017-0.005,4.034-0.024,6.051c-0.003,0.276,0.003,0.551,0.006,0.827
			c0.003,0.291-0.056,0.585,0.071,0.875c0.014,0.033,0.206,0.038,0.286,0.017c0.019,0.001,0.037,0.003,0.06,0.004
			c2.079,0.049,4.193,0.046,6.285,0.059c2.136,0.013,4.273,0.021,6.409,0.03c4.191,0.016,8.383,0.032,12.574,0.038
			c8.425,0.012,16.85,0.01,25.274-0.02c4.766-0.017,8.761-0.052,13.526-0.062C115.456,146.405,115.771,146.396,115.823,146.286z"/>
		<path style="fill:#4C5980;" d="M73.077,160.945c0,0-0.001,0-0.001,0c0.067-0.481,0.026-0.974,0.03-1.456
			c0.004-0.504,0.003-1.008,0.006-1.513c0.005-1.008,0.016-2.017,0.022-3.025c0.003-0.567,0.007-1.134,0.006-1.702
			c0-0.033-0.042-0.05-0.086-0.053c-0.017-0.007-0.038-0.012-0.064-0.012c-2.897-0.043-5.794-0.055-8.691-0.072
			c-2.883-0.017-5.767-0.009-8.65,0.004c-1.633,0.008-3.267,0.007-4.9,0.039c-0.055,0.001-0.09,0.019-0.104,0.041
			c-0.041,0.004-0.077,0.021-0.077,0.051c-0.02,2.017-0.002,4.034-0.008,6.051c-0.001,0.276,0.001,0.551,0.002,0.827
			c0.001,0.29-0.019,0.585,0.024,0.875c0.005,0.032,0.071,0.038,0.098,0.017c0.007,0.001,0.013,0.003,0.021,0.003
			c0.717,0.049,1.447,0.046,2.169,0.059c0.737,0.013,1.474,0.022,2.212,0.03c1.446,0.016,2.892,0.032,4.339,0.037
			c2.907,0.012,5.814,0.01,8.721-0.019c1.644-0.017,3.023-0.052,4.667-0.062C72.95,161.064,73.059,161.055,73.077,160.945z"/>
		<path style="fill:#4C5980;" d="M145.419,95.409c0,0-0.002,0-0.003,0c0.154-0.323,0.058-0.654,0.068-0.978
			c0.01-0.339,0.007-0.677,0.013-1.016c0.012-0.677,0.037-1.354,0.05-2.032c0.008-0.381,0.017-0.762,0.013-1.143
			c0-0.022-0.095-0.033-0.198-0.036c-0.04-0.005-0.086-0.008-0.146-0.008c-6.638-0.029-13.277-0.037-19.916-0.048
			c-6.606-0.011-13.215-0.006-19.821,0.003c-3.742,0.005-7.487,0.005-11.228,0.026c-0.126,0.001-0.205,0.013-0.239,0.028
			c-0.094,0.003-0.176,0.014-0.177,0.034c-0.045,1.355-0.004,2.709-0.019,4.064c-0.002,0.185,0.002,0.37,0.004,0.556
			c0.002,0.195-0.045,0.393,0.056,0.588c0.011,0.022,0.163,0.025,0.226,0.011c0.015,0.001,0.029,0.002,0.047,0.002
			c1.644,0.033,3.316,0.031,4.969,0.039c1.689,0.009,3.378,0.014,5.068,0.02c3.314,0.011,6.628,0.021,9.943,0.025
			c6.661,0.008,13.324,0.007,19.984-0.013c3.768-0.011,6.927-0.035,10.695-0.042C145.128,95.489,145.377,95.483,145.419,95.409z"/>
		<path style="fill:#4C5980;" d="M122.652,105.982c0,0-0.001,0-0.002,0c0.086-0.323,0.033-0.654,0.038-0.978
			c0.006-0.339,0.004-0.677,0.007-1.016c0.007-0.677,0.021-1.355,0.028-2.032c0.004-0.381,0.009-0.762,0.007-1.143
			c0-0.022-0.053-0.033-0.111-0.036c-0.022-0.005-0.048-0.008-0.082-0.008c-3.709-0.029-7.42-0.037-11.13-0.048
			c-3.692-0.011-7.385-0.006-11.077,0.003c-2.091,0.005-4.184,0.005-6.275,0.026c-0.07,0.001-0.115,0.013-0.133,0.028
			c-0.053,0.003-0.098,0.014-0.099,0.034c-0.025,1.354-0.002,2.709-0.011,4.064c-0.001,0.185,0.001,0.37,0.002,0.556
			c0.001,0.195-0.025,0.393,0.031,0.588c0.006,0.022,0.091,0.026,0.126,0.011c0.009,0.001,0.016,0.002,0.027,0.002
			c0.919,0.033,1.853,0.031,2.777,0.039c0.944,0.009,1.888,0.014,2.832,0.02c1.852,0.011,3.704,0.021,5.556,0.025
			c3.723,0.008,7.446,0.007,11.168-0.013c2.106-0.011,3.871-0.035,5.977-0.042C122.49,106.062,122.629,106.056,122.652,105.982z"/>
		<g>
			<path style="fill:#FFFFFF;" d="M82.988,106.255c0-0.001-0.001,0-0.002,0c0.1-1.914,0.038-3.872,0.044-5.789
				c0.006-2.005,0.005-4.01,0.009-6.014c0.008-4.01,0.024-8.019,0.033-12.029c0.005-2.256,0.011-4.511,0.008-6.767
				c0-0.129-0.062-0.198-0.128-0.212c-0.026-0.027-0.056-0.048-0.095-0.049c-4.295-0.169-8.591-0.218-12.887-0.284
				c-4.275-0.066-8.551-0.037-12.826,0.017c-2.421,0.031-4.845,0.028-7.265,0.155c-0.082,0.004-0.133,0.075-0.154,0.163
				c-0.061,0.017-0.114,0.082-0.114,0.201c-0.029,8.019-0.002,16.039-0.012,24.059c-0.001,1.096,0.001,2.193,0.003,3.289
				c0.001,1.155-0.029,2.326,0.036,3.478c0.007,0.13,0.105,0.152,0.146,0.068c0.01,0.005,0.019,0.012,0.031,0.014
				c1.064,0.195,2.146,0.181,3.216,0.233c1.093,0.052,2.186,0.086,3.279,0.119c2.144,0.065,4.289,0.125,6.434,0.149
				c4.31,0.048,8.622,0.041,12.931-0.077c2.438-0.067,4.482-0.206,6.921-0.247C82.8,106.728,82.961,106.694,82.988,106.255z"/>
		</g>
		<path style="fill:#FFFFFF;" d="M140.754,64.466c-3.364-0.283-6.773-0.223-10.148-0.297c-3.306-0.072-6.611-0.141-9.917-0.211
			c-3.306-0.07-6.611-0.14-9.917-0.21c-3.374-0.072-6.779-0.272-10.148-0.006c-0.313,0.025-0.304,0.444,0,0.48
			c3.358,0.405,6.77,0.347,10.148,0.416c3.306,0.067,6.611,0.135,9.917,0.202c3.306,0.067,6.611,0.136,9.917,0.201
			c3.373,0.066,6.777,0.269,10.148,0.125C141.208,65.145,141.199,64.504,140.754,64.466z"/>
		<path style="fill:#FFFFFF;" d="M153.703,64.912c-0.367-0.154-0.817-0.115-1.211-0.133c-0.377-0.018-0.753-0.036-1.13-0.054
			c-0.847-0.041-1.694-0.082-2.542-0.122c-1.609-0.077-3.286-0.243-4.887-0.045c-0.283,0.035-0.301,0.511-0.022,0.568
			c1.58,0.321,3.266,0.285,4.875,0.331c0.816,0.024,1.633,0.047,2.449,0.071l1.225,0.035c0.396,0.011,0.838,0.086,1.217-0.04
			C153.983,65.421,153.999,65.036,153.703,64.912z"/>
	</g>
	<g>
		<path style="fill:#FFBB39;" d="M334.147,129.414c-0.014-0.365-0.353-0.546-0.685-0.545c-0.081-0.056-0.18-0.099-0.312-0.106
			c-5.406-0.27-10.77-0.142-16.113-1.049c-4.316-0.733-9.026-2.226-12.475-4.621c-1.712-1.189-3.242-2.51-4.479-4.069
			c-1.321-1.664-2.169-3.344-2.935-5.236c-0.76-1.879-1.21-3.795-1.397-5.779c-0.092-0.971-0.125-1.942-0.16-2.915
			c-0.031-0.852,0.158-1.753-0.405-2.499c-0.162-0.214-1.66-0.997-2.371-1.291c-1.085-0.449-2.176-0.885-3.26-1.335
			c-1.941-0.807-3.935-1.537-5.926-2.248c-7.563-2.701-15.262-5.133-23.131-7.104c-3.94-0.987-7.912-1.819-11.883-2.699
			c-3.971-0.88-8.039-1.374-12.044-2.114c-0.078-0.014-0.141-0.004-0.211-0.005c-0.03-0.006-0.068,0.001-0.1-0.002
			c-0.032,0.003-0.07-0.003-0.1,0.002c-0.07,0.001-0.132-0.01-0.211,0.005c-4.004,0.74-8.073,1.234-12.044,2.114
			c-3.971,0.88-7.944,1.713-11.883,2.699c-7.869,1.971-15.568,4.403-23.131,7.104c-1.99,0.711-3.985,1.441-5.925,2.248
			c-1.084,0.45-2.175,0.887-3.26,1.335c-0.71,0.294-2.209,1.076-2.371,1.291c-0.563,0.746-0.375,1.647-0.405,2.499
			c-0.035,0.973-0.068,1.944-0.16,2.915c-0.188,1.984-0.637,3.9-1.397,5.779c-0.765,1.892-1.614,3.571-2.935,5.236
			c-1.237,1.559-2.768,2.88-4.479,4.069c-3.449,2.395-8.159,3.888-12.475,4.621c-5.343,0.908-10.707,0.78-16.113,1.049
			c-0.132,0.007-0.231,0.05-0.312,0.106c-0.331-0.002-0.67,0.18-0.685,0.545c-0.571,14.436,0.932,28.837,3.445,43.103
			c2.307,13.099,5.199,26.16,9.525,38.89c4.213,12.397,9.887,24.505,18.02,35.426c7.024,9.432,15.998,17.831,26.583,24.426
			c11.677,7.276,25.712,12.524,40.305,12.967c0.002,0,0.003,0.001,0.004,0.001c0.001,0,0.002,0,0.004,0c0.001,0,0.002,0,0.003,0
			c0.002,0,0.003-0.001,0.004-0.001c14.593-0.443,28.628-5.691,40.305-12.967c10.585-6.596,19.559-14.994,26.583-24.426
			c8.133-10.921,13.807-23.029,18.02-35.426c4.327-12.731,7.218-25.791,9.525-38.89C333.215,158.251,334.718,143.85,334.147,129.414
			z"/>
		<path style="fill:#FFFFFF;" d="M315.899,216.356c-3.979,14.013-10.589,26.931-20.299,37.863
			c-9.95,11.202-22.556,19.646-36.514,25.013c-7.765,2.986-15.606,4.603-23.792,5.907c-0.201,0.032-0.152,0.358,0.048,0.353
			c14.786-0.406,29.817-5.973,42.196-13.848c12.522-7.967,22.997-19.05,30.399-31.904c4.123-7.16,7.439-14.949,9.424-22.981
			C317.595,215.812,316.166,215.416,315.899,216.356z"/>
		<path style="fill:#4C5980;" d="M313.773,141.731c-5.372-0.912-13.162-2.963-19.766-7.549c-3.161-2.195-5.705-4.531-7.777-7.142
			c-2.577-3.248-3.971-6.295-4.896-8.58c-0.877-2.168-1.521-4.427-1.921-6.741c-0.75-0.278-1.504-0.55-2.239-0.812
			c-7.688-2.746-14.683-4.896-21.385-6.576c-2.757-0.691-5.589-1.311-8.587-1.967l-2.789-0.613c-1.868-0.414-3.984-0.752-6.225-1.11
			c-0.634-0.101-1.275-0.204-1.926-0.311c-0.651,0.107-1.292,0.209-1.925,0.311c-2.24,0.358-4.357,0.696-6.225,1.11l-2.783,0.612
			c-3,0.656-5.835,1.277-8.594,1.968c-6.702,1.679-13.698,3.83-21.387,6.576c-0.735,0.262-1.488,0.533-2.237,0.812
			c-0.4,2.314-1.042,4.571-1.918,6.735c-0.926,2.291-2.321,5.338-4.899,8.587c-2.07,2.609-4.614,4.945-7.774,7.139
			c-6.605,4.588-14.396,6.638-19.768,7.551c-1.225,0.209-2.431,0.375-3.614,0.511c0.368,8.661,1.44,17.969,3.233,28.15
			c2.597,14.743,5.472,26.51,9.049,37.032c4.274,12.577,9.53,22.958,16.07,31.74c6.12,8.218,13.632,15.132,22.326,20.551
			c5.851,3.646,24.422,9.447,24.422,9.447c1.837,0.638,3.724,1.133,5.657,1.524c0.188,0.038,0.335-0.018,0.44-0.11
			c1.985-0.104,6.302-1.302,6.527-1.379c9.695-1.694,18.088-5.891,23.851-9.482c8.694-5.418,16.207-12.332,22.327-20.551
			c6.538-8.78,11.794-19.163,16.069-31.741c3.577-10.524,6.452-22.291,9.049-37.032c1.794-10.181,2.865-19.488,3.233-28.15
			C316.204,142.105,314.998,141.939,313.773,141.731z"/>
		<path style="fill:#FFFFFF;" d="M316.736,147.104c-0.761,8.81-1.888,17.6-3.435,26.335c-1.529,8.639-3.579,17.183-5.674,25.733
			c-0.093,0.379,0.569,0.55,0.684,0.168c5.124-17.024,7.969-34.711,9.43-52.226C317.787,146.561,316.783,146.555,316.736,147.104z"
			/>
		<g>
			<path style="fill:#FFFFFF;" d="M261.198,146.141c-2.188-7.212-6.535-13.978-13.226-17.742c-6.53-3.672-14.057-3.677-20.807-0.554
				c-6.928,3.206-11.843,9.324-14.83,16.214c-1.767,4.075-2.759,8.383-3.326,12.779c-0.639,4.954-0.964,10.322,0.294,15.183
				c0.036,0.138,0.115,0.213,0.207,0.254c0.01,0.104,0.046,0.212,0.145,0.332c0.259,0.316,0.648,0.326,1.025,0.328
				c0.345,0.002,0.7,0.032,1.044,0.009c0.409-0.028,0.813-0.125,1.222-0.157c0.379-0.029,0.758-0.003,1.138-0.035
				c0.76-0.064,1.52-0.075,2.282-0.107c0.787-0.033,1.591,0.081,2.373,0.009c0.243-0.023,0.468-0.109,0.64-0.254
				c0.294-0.032,0.559-0.231,0.544-0.617c-0.22-5.67,0.34-11.335,1.743-16.836c1.242-4.867,2.908-11.173,7.182-14.297
				c3.795-2.774,9.318-2.283,13.186,0.076c4.206,2.565,6.677,7.117,7.827,11.793c0.759,3.085,0.909,6.28,0.798,9.445
				c-0.055,1.555-0.174,3.107-0.327,4.655c-0.169,1.703-0.614,3.517-0.399,5.22c0.031,0.248,0.134,0.442,0.274,0.581
				c0.055,0.276,0.242,0.528,0.592,0.644c0.551,0.183,0.995,0.263,1.576,0.291c0.312,0.015,0.623,0.005,0.934-0.009
				c1.472,0.245,3.047,0.238,4.521,0.185c1.263-0.045,2.535-0.22,3.788-0.438c0.417,0.504,1.383,0.362,1.534-0.409
				c0.362-0.309,0.354-0.86,0.087-1.266C263.663,162.931,263.691,154.36,261.198,146.141z"/>
			<path style="opacity:0.5;fill:#FFD075;" d="M263.45,164.826c-4.314-0.09-8.628-0.158-12.943-0.214
				c-0.051,0.67-0.107,1.339-0.174,2.007c-0.169,1.703-0.614,3.517-0.399,5.22c0.031,0.248,0.134,0.442,0.274,0.581
				c0.055,0.276,0.242,0.528,0.592,0.644c0.551,0.183,0.994,0.263,1.576,0.291c0.312,0.015,0.623,0.005,0.934-0.009
				c1.472,0.245,3.047,0.238,4.521,0.185c1.263-0.045,2.535-0.22,3.788-0.438c0.417,0.504,1.383,0.362,1.534-0.409
				c0.362-0.309,0.354-0.86,0.087-1.266C263.351,169.225,263.43,167.025,263.45,164.826z M208.458,163.907
				c-0.04,2.756,0.171,5.508,0.845,8.115c0.036,0.138,0.115,0.213,0.207,0.254c0.01,0.104,0.046,0.212,0.145,0.332
				c0.259,0.316,0.648,0.326,1.025,0.328c0.345,0.002,0.7,0.032,1.044,0.009c0.409-0.028,0.813-0.125,1.222-0.157
				c0.38-0.029,0.758-0.003,1.138-0.035c0.76-0.064,1.52-0.075,2.282-0.107c0.787-0.033,1.591,0.081,2.373,0.009
				c0.243-0.023,0.468-0.109,0.64-0.254c0.294-0.032,0.559-0.231,0.544-0.617c-0.099-2.563-0.031-5.124,0.195-7.67
				C216.239,164.027,212.344,163.856,208.458,163.907z"/>
			<path style="fill:#FFFFFF;" d="M273.555,171.914c-1.374-2.396-5.047-2.492-7.95-2.496c-4.744-0.007-9.488-0.006-14.232-0.006
				c-2.221,0-4.441,0-6.662,0c-2.468,0-5.213,0.261-7.65-0.054c-0.194-0.025-0.352-0.008-0.49,0.03
				c-0.138-0.037-0.297-0.055-0.49-0.03c-2.436,0.316-5.181,0.054-7.65,0.054c-2.221,0-4.441,0-6.662,0
				c-4.744,0-9.488-0.001-14.232,0.006c-2.903,0.004-6.576,0.1-7.95,2.496c-0.433,0.755-0.067,3.866-0.062,4.599
				c-0.001,0.037-0.001,0.075-0.001,0.112c0,0.003,0.002,0.005,0.002,0.008c0.1,14.964,0.272,29.928,0.434,44.891
				c0.029,2.643-0.306,10.214,2.033,11.139c0.061,0.079,0.476,0.387,0.63,0.343c2.637,1.257,6.52,0.767,9.411,0.738
				c8.167-0.081,40.906-0.081,49.073,0c2.891,0.029,6.774,0.519,9.411-0.738c0.154,0.043,0.569-0.264,0.63-0.343
				c2.268-1.384,2.005-8.497,2.033-11.139c0.163-14.964,0.334-29.927,0.434-44.891c0-0.003,0.002-0.005,0.002-0.008
				c0-0.037-0.001-0.075-0.001-0.112C273.622,175.78,273.988,172.668,273.555,171.914z"/>
			<path style="fill:#313B59;" d="M245.262,195.919c1.088-1.906,1.323-4.239,0.784-6.397c-1.177-4.717-5.507-7.362-9.773-6.917
				c-4.267-0.445-8.597,2.2-9.773,6.917c-0.538,2.158-0.304,4.492,0.784,6.397c0.599,1.049,1.548,2.156,2.649,2.764
				c-0.396,3.474-0.79,6.948-1.183,10.422c-0.412,3.647-1.124,7.439-0.989,11.121c0.005,0.136,0.089,0.215,0.184,0.244
				c0.056,0.08,0.141,0.136,0.261,0.138c2.642,0.046,5.292,0.072,7.933-0.001c0.05-0.001,0.217-0.001,0.267,0
				c2.641,0.072,5.291,0.047,7.933,0.001c0.12-0.002,0.206-0.059,0.261-0.138c0.095-0.029,0.179-0.109,0.184-0.244
				c0.135-3.682-0.577-7.473-0.989-11.121c-0.392-3.474-0.787-6.948-1.183-10.422C243.714,198.074,244.663,196.968,245.262,195.919z
				"/>
		</g>
		<path style="fill:#FFFFFF;" d="M216.551,104.06c-7.948,2.127-15.906,4.409-23.557,7.23c-0.046,0.017-0.081,0.04-0.108,0.067
			c-0.064,0.032-0.112,0.085-0.125,0.163c-0.361,2.189-0.755,4.317-1.559,6.429c-0.81,2.129-1.903,4.187-3.224,6.119
			c-0.2,0.293,0.33,0.539,0.536,0.254c2.661-3.693,4.573-8.139,4.852-12.508c7.749-2.515,15.461-5.049,23.368-7.187
			C217.153,104.512,216.974,103.946,216.551,104.06z"/>
		<path style="fill:#FFFFFF;" d="M175.47,112.226c-0.433,0.757-0.625,1.63-1.001,2.415c-0.398,0.832-0.872,1.638-1.404,2.413
			c-1.064,1.552-2.374,2.976-3.88,4.234c-3.01,2.512-6.809,4.328-10.884,5.225c-0.431,0.095-0.247,0.641,0.183,0.565
			c4.303-0.76,8.192-2.637,11.325-5.257c1.526-1.276,2.864-2.724,3.955-4.293c0.533-0.768,1.003-1.566,1.411-2.388
			c0.418-0.843,0.954-1.822,1.026-2.744C176.227,112.07,175.639,111.931,175.47,112.226z"/>
		<path style="fill:#FFFFFF;" d="M236.095,85.375c-15.973,2.302-31.6,6.219-46.49,11.669c-4.24,1.552-8.798,3.065-12.685,5.205
			c-0.297,0.164-0.111,0.64,0.255,0.517c3.637-1.23,7.101-2.907,10.679-4.268c3.819-1.452,7.692-2.801,11.609-4.048
			c7.606-2.419,15.383-4.449,23.274-6.074c4.487-0.924,9.01-1.712,13.56-2.376C236.779,85.93,236.574,85.306,236.095,85.375z"/>
		<path style="fill:#FFFFFF;" d="M154.121,127.44c-0.48-0.071-0.965,0.009-1.449,0.051c-0.526,0.045-1.052,0.09-1.577,0.136
			c-0.977,0.084-1.953,0.168-2.93,0.252c-0.977,0.084-1.953,0.168-2.93,0.252c-0.488,0.042-0.972,0.089-1.457,0.146
			c-0.466,0.055-0.961,0.063-1.387,0.239c-0.208,0.086-0.164,0.374,0.055,0.422c0.457,0.101,0.954,0.023,1.421,0
			c0.452-0.023,0.901-0.056,1.352-0.093c1.014-0.085,2.028-0.17,3.043-0.255c0.976-0.082,1.953-0.164,2.93-0.245
			c0.488-0.041,0.977-0.082,1.465-0.123c0.475-0.04,1.007-0.028,1.452-0.175C154.397,127.949,154.525,127.5,154.121,127.44z"/>
		<path style="fill:#FFFFFF;" d="M148.696,201.783c-4.62-15.675-7.888-31.58-9.287-47.709c-0.392-4.518-0.643-9.043-0.766-13.572
			c-0.014-0.525-0.971-0.526-0.956,0c0.452,16.138,2.61,32.236,6.477,48.039c1.103,4.506,2.349,8.98,3.775,13.419
			C148.073,202.377,148.819,202.202,148.696,201.783z"/>
	</g>
	<g>
		<path style="fill:#D66EC0;" d="M188.706,361.218c0-0.003-0.005,0-0.007,0c0.302-4.814,0.012-9.733-0.029-14.552
			c-0.042-5.039-0.114-10.078-0.165-15.118c-0.102-10.078-0.176-20.156-0.275-30.234c-0.056-5.669-0.108-11.339-0.192-17.008
			c-0.005-0.324-0.231-0.496-0.475-0.53c-0.094-0.067-0.204-0.118-0.348-0.121c-15.7-0.314-31.401-0.325-47.102-0.381
			c-15.622-0.055-31.248,0.129-46.866,0.376c-8.847,0.14-17.703,0.195-26.543,0.576c-0.298,0.013-0.483,0.193-0.559,0.414
			c-0.222,0.044-0.414,0.208-0.411,0.509c0.155,20.157,0.517,40.314,0.743,60.472c0.031,2.756,0.077,5.512,0.118,8.268
			c0.044,2.904-0.029,5.848,0.246,8.742c0.031,0.325,0.389,0.378,0.536,0.166c0.036,0.013,0.07,0.029,0.112,0.034
			c3.893,0.462,110.882-0.24,119.791-0.407C188.035,362.412,188.623,362.322,188.706,361.218z"/>
		<g>
			<path style="fill:#FFFFFF;" d="M88.854,318.462c3.348,2.746,8.732,2.939,12.007,0.043c3.101-2.741,3.268-8.157,0.955-11.583
				c-1.911-2.832-5.187-4.173-8.24-3.917c-2.914,0.245-5.632,2.027-6.948,5.096c-0.398,0.929-0.638,1.941-0.727,2.971
				C85.649,313.994,86.787,316.766,88.854,318.462z"/>
			<path style="fill:#FFFFFF;" d="M84.752,326.96c-2.868,1.96-4.484,4.96-5.317,8.17c-0.144,0.554-0.913,6.124-0.215,6.181
				c10.097,0.832,20.295,0.826,30.415-0.017c0.619-0.054,0.362-3.42,0.343-3.832c-0.217-4.877-3.2-10.675-8.809-12.318
				c-4.298-1.259-9.621-1.095-13.813,0.473C86.39,325.978,85.525,326.431,84.752,326.96z"/>
		</g>
		<g>
			<path style="fill:#4C5980;" d="M177.477,306.874c0,0-0.002,0-0.003,0c0.161-0.356,0.061-0.72,0.071-1.076
				c0.01-0.373,0.008-0.746,0.014-1.118c0.013-0.746,0.038-1.491,0.052-2.236c0.008-0.419,0.017-0.839,0.013-1.258
				c0-0.024-0.099-0.037-0.207-0.039c-0.041-0.005-0.089-0.009-0.153-0.009c-6.92-0.031-13.842-0.04-20.764-0.053
				c-6.887-0.012-13.777-0.007-20.664,0.003c-3.901,0.006-7.806,0.005-11.706,0.029c-0.131,0.001-0.214,0.014-0.249,0.03
				c-0.098,0.003-0.184,0.015-0.184,0.037c-0.047,1.491-0.004,2.982-0.02,4.473c-0.002,0.204,0.002,0.408,0.005,0.612
				c0.002,0.215-0.046,0.433,0.058,0.647c0.012,0.024,0.169,0.028,0.235,0.013c0.016,0.001,0.031,0.002,0.049,0.003
				c1.714,0.036,3.457,0.034,5.181,0.043c1.761,0.01,3.522,0.016,5.283,0.022c3.455,0.012,6.91,0.023,10.365,0.028
				c6.945,0.009,13.891,0.008,20.835-0.014c3.928-0.012,7.222-0.038,11.15-0.046C177.174,306.962,177.434,306.956,177.477,306.874z"
				/>
			<path style="fill:#4C5980;" d="M169.703,318.911c0,0-0.002,0-0.003,0c0.138-0.357,0.052-0.72,0.061-1.077
				c0.009-0.373,0.006-0.745,0.012-1.118c0.011-0.746,0.033-1.491,0.045-2.237c0.007-0.419,0.015-0.839,0.011-1.258
				c0-0.024-0.085-0.036-0.177-0.038c-0.035-0.005-0.076-0.008-0.131-0.008c-5.92,0.034-11.842,0.091-17.764,0.144
				c-5.892,0.053-11.786,0.124-17.678,0.199c-3.338,0.043-6.678,0.079-10.014,0.139c-0.112,0.002-0.183,0.016-0.213,0.033
				c-0.084,0.004-0.157,0.017-0.158,0.039c-0.04,1.491-0.003,2.982-0.017,4.473c-0.002,0.204,0.002,0.408,0.004,0.612
				c0.002,0.215-0.04,0.433,0.05,0.646c0.01,0.024,0.145,0.026,0.201,0.01c0.014,0.001,0.026,0.002,0.042,0.002
				c1.466,0.02,2.957,0.001,4.432-0.006c1.506-0.007,3.013-0.017,4.52-0.028c2.956-0.021,5.912-0.042,8.868-0.07
				c5.941-0.057,11.883-0.124,17.824-0.212c3.361-0.05,6.178-0.107,9.539-0.152C169.444,319.002,169.666,318.994,169.703,318.911z"
				/>
			<path style="fill:#4C5980;" d="M177.477,331.335c0,0-0.002,0-0.003,0c0.161-0.358,0.061-0.721,0.071-1.077
				c0.01-0.373,0.008-0.746,0.014-1.118c0.013-0.746,0.038-1.491,0.052-2.237c0.008-0.419,0.017-0.839,0.013-1.258
				c0-0.024-0.099-0.036-0.207-0.037c-0.041-0.005-0.089-0.008-0.153-0.008c-6.92,0.045-13.842,0.113-20.764,0.177
				c-6.887,0.064-13.777,0.146-20.664,0.232c-3.901,0.049-7.806,0.091-11.706,0.158c-0.131,0.002-0.214,0.016-0.249,0.033
				c-0.098,0.004-0.184,0.017-0.184,0.04c-0.047,1.491-0.004,2.982-0.02,4.473c-0.002,0.204,0.002,0.408,0.005,0.612
				c0.002,0.215-0.046,0.433,0.058,0.646c0.012,0.024,0.169,0.026,0.235,0.01c0.016,0.001,0.031,0.002,0.049,0.002
				c1.714,0.017,3.457-0.005,5.181-0.014c1.761-0.01,3.522-0.023,5.283-0.036c3.455-0.026,6.91-0.053,10.365-0.087
				c6.945-0.068,13.891-0.146,20.835-0.245c3.928-0.056,7.222-0.118,11.15-0.169C177.174,331.426,177.434,331.417,177.477,331.335z"
				/>
			<path style="fill:#4C5980;" d="M163.194,344.002c0,0-0.001,0-0.002,0c0.118-0.357,0.045-0.72,0.052-1.077
				c0.007-0.373,0.005-0.746,0.01-1.118c0.01-0.746,0.028-1.491,0.038-2.237c0.006-0.419,0.013-0.839,0.01-1.258
				c0-0.024-0.073-0.036-0.152-0.038c-0.03-0.005-0.066-0.008-0.112-0.008c-5.083,0.025-10.167,0.072-15.252,0.116
				c-5.059,0.044-10.12,0.105-15.179,0.171c-2.866,0.038-5.734,0.069-8.598,0.124c-0.096,0.002-0.157,0.016-0.183,0.032
				c-0.072,0.004-0.135,0.017-0.135,0.039c-0.035,1.491-0.003,2.982-0.015,4.473c-0.002,0.204,0.002,0.408,0.003,0.612
				c0.002,0.215-0.034,0.433,0.043,0.646c0.009,0.024,0.124,0.027,0.173,0.011c0.012,0.001,0.023,0.002,0.036,0.002
				c1.259,0.022,2.539,0.006,3.806,0.001c1.293-0.005,2.587-0.013,3.881-0.021c2.538-0.016,5.076-0.033,7.614-0.057
				c5.101-0.048,10.203-0.105,15.304-0.184c2.886-0.044,5.305-0.097,8.19-0.137C162.972,344.093,163.162,344.084,163.194,344.002z"
				/>
		</g>
		<path style="fill:#FFFFFF;" d="M66.14,296.473c-0.004-0.486-0.743-0.481-0.738,0.005c0.109,12.391-0.05,24.82,0.412,37.204
			c0.013,0.343,0.514,0.339,0.521-0.004C66.595,321.292,66.233,308.864,66.14,296.473z"/>
		<path style="fill:#FFFFFF;" d="M137.994,282.437c-18.717,0.256-37.434,0.548-56.15,0.837c-5.37,0.083-10.74,0.14-16.108,0.303
			c-0.324,0.01-0.411,0.365-0.276,0.577c-0.046,0.059-0.08,0.131-0.079,0.227c0.011,1.432,0.002,2.866,0.037,4.298
			c0.018,0.716,0.041,1.433,0.062,2.149c0.01,0.331,0.019,0.661,0.029,0.992c0.01,0.349-0.028,0.735,0.091,1.065
			c0.095,0.262,0.436,0.26,0.524-0.004c0.11-0.331,0.062-0.719,0.063-1.066c0.001-0.331,0.002-0.661,0.003-0.992
			c0.002-0.716,0.007-1.433,0.006-2.149c-0.002-1.432-0.049-2.866-0.075-4.298c0-0.026-0.01-0.045-0.015-0.068
			c18.595,0.001,37.202-0.465,55.793-0.764c5.37-0.086,10.739-0.176,16.108-0.263C138.535,283.271,138.526,282.429,137.994,282.437z
			"/>
	</g>
	<g>
		<g>
			<path style="fill:#FFFFFF;" d="M452.459,353.319c0-0.002-0.005,0-0.007,0c0.365-4.499,0.138-9.101,0.161-13.607
				c0.023-4.712,0.017-9.425,0.031-14.137c0.029-9.425,0.087-18.849,0.119-28.274c0.018-5.302,0.04-10.603,0.03-15.905
				c-0.001-0.303-0.225-0.465-0.469-0.498c-0.094-0.063-0.203-0.112-0.346-0.115c-15.701-0.398-31.406-0.512-47.11-0.668
				c-15.626-0.155-31.258-0.087-46.884,0.041c-8.851,0.072-17.711,0.065-26.558,0.363c-0.298,0.01-0.485,0.177-0.564,0.384
				c-0.222,0.04-0.416,0.192-0.418,0.474c-0.107,18.85-0.008,37.701-0.045,56.551c-0.005,2.577,0.005,5.155,0.01,7.732
				c0.006,2.716-0.105,5.468,0.133,8.176c0.027,0.304,0.384,0.356,0.534,0.159c0.036,0.013,0.07,0.028,0.112,0.033
				c3.888,0.458,7.843,0.426,11.755,0.547c3.995,0.123,7.991,0.202,11.987,0.279c7.838,0.152,15.678,0.295,23.518,0.35
				c15.757,0.112,31.516,0.096,47.27-0.182c8.913-0.157,16.385-0.484,25.299-0.581C451.772,354.432,452.361,354.351,452.459,353.319
				z"/>
		</g>
		<path style="fill:#FFBB39;" d="M452.324,280.898c-0.094-0.063-0.203-0.112-0.346-0.115c-15.701-0.398-31.406-0.512-47.11-0.668
			c-15.626-0.155-31.258-0.087-46.884,0.041c-8.851,0.072-17.711,0.065-26.558,0.363c-0.298,0.01-0.485,0.177-0.564,0.384
			c-0.222,0.04-0.416,0.192-0.418,0.474c-0.022,3.861-0.031,7.723-0.039,11.584c3.872,0.234,7.777,0.245,11.651,0.342
			c4.915,0.123,9.833,0.202,14.75,0.279c9.644,0.152,19.29,0.295,28.937,0.35c19.387,0.112,38.778,0.096,58.163-0.182
			c3.07-0.044,5.995-0.102,8.865-0.164c0.014-4.063,0.03-8.126,0.023-12.19C452.792,281.094,452.568,280.931,452.324,280.898z"/>
		<path style="fill:#A1B0BA;" d="M452.392,354.05c-2.133,0.042-4.267,0.084-6.4,0.126c-2.062,0.041-4.199-0.075-6.242,0.207
			c-0.396,0.055-0.253,0.617,0.088,0.65c2.06,0.199,4.209-0.017,6.277-0.062c2.092-0.046,4.185-0.091,6.277-0.137
			C452.896,354.823,452.898,354.04,452.392,354.05z"/>
		<path style="fill:#A1B0BA;" d="M452.881,336.877c0.004-5.87,0.118-11.743-0.001-17.612c-0.009-0.426-0.653-0.426-0.662,0
			c-0.126,5.869-0.02,11.742-0.023,17.612c-0.004,5.869-0.137,11.744-0.023,17.612c0.009,0.457,0.702,0.458,0.711,0
			C453.002,348.621,452.877,342.746,452.881,336.877z"/>
		<path style="fill:#A1B0BA;" d="M453.255,296.087c0.006-0.41-0.634-0.411-0.637,0c-0.025,3.389,0.002,6.784-0.079,10.172
			c-0.081,3.393-0.197,6.777-0.132,10.172c0.008,0.395,0.597,0.394,0.613,0c0.139-3.392,0.098-6.778,0.091-10.172
			C453.104,302.869,453.205,299.476,453.255,296.087z"/>
		<path style="fill:#FFBB39;" d="M440.516,310.749c0.432-0.477-0.307-1.219-0.796-0.799c-0.221,0.189-0.429,0.39-0.648,0.581
			c-0.559,0.319-3.116,2.068-3.736,2.688c-0.623,0.622-1.259,1.207-1.808,1.888c-0.573,0.71-4.954,5.174-6.333,6.864
			c-1.803,2.211-3.369,4.588-4.864,7.015c-0.878,1.426-1.766,2.843-2.624,4.277c-1.224-2.052-2.577-4.037-4.066-5.867
			c-2.338-2.875-4.619-5.676-7.326-8.221c-1.024-0.963-2.669,0.68-1.746,1.739c2.261,2.593,4.595,5.338,6.346,8.308
			c1.773,3.008,3.331,6.082,4.793,9.248c0.819,1.773,3.089,1.606,3.951,0.001c1.292-2.407,2.546-4.861,4.039-7.151
			c1.554-2.385,3.212-4.702,4.825-7.046c1.574-2.288,2.892-4.77,4.546-6.999c0.694-0.934,1.422-1.845,2.166-2.745
			c0.229-0.259,0.453-0.526,0.667-0.802C438.757,312.718,439.632,311.726,440.516,310.749z"/>
		<path style="fill:#4C5980;" d="M395.76,311.618c0,0-0.002,0-0.003,0c0.163-0.363,0.062-0.735,0.072-1.098
			c0.01-0.38,0.008-0.761,0.014-1.141c0.013-0.761,0.039-1.521,0.053-2.282c0.008-0.428,0.018-0.856,0.013-1.284
			c0-0.024-0.1-0.038-0.209-0.04c-0.042-0.005-0.091-0.009-0.155-0.009c-7.01-0.032-14.023-0.041-21.035-0.054
			c-6.977-0.013-13.957-0.007-20.934,0.003c-3.952,0.006-7.908,0.005-11.858,0.029c-0.133,0.001-0.217,0.014-0.252,0.031
			c-0.099,0.003-0.186,0.015-0.187,0.038c-0.048,1.521-0.004,3.043-0.02,4.564c-0.002,0.208,0.002,0.416,0.004,0.624
			c0.003,0.219-0.047,0.441,0.059,0.66c0.012,0.025,0.172,0.029,0.238,0.013c0.016,0.001,0.031,0.002,0.05,0.003
			c1.736,0.037,3.502,0.034,5.249,0.044c1.784,0.01,3.568,0.016,5.352,0.022c3.5,0.012,7,0.024,10.501,0.028
			c7.035,0.009,14.072,0.008,21.107-0.015c3.98-0.013,7.316-0.039,11.296-0.047C395.453,311.707,395.716,311.701,395.76,311.618z"/>
		<path style="fill:#4C5980;" d="M395.76,325.586c0,0-0.002,0-0.003,0c0.163-0.363,0.062-0.735,0.072-1.098
			c0.01-0.38,0.008-0.761,0.014-1.141c0.013-0.761,0.039-1.521,0.053-2.282c0.008-0.428,0.018-0.856,0.013-1.284
			c0-0.025-0.1-0.038-0.209-0.04c-0.042-0.005-0.091-0.009-0.155-0.009c-7.01-0.032-14.023-0.041-21.035-0.054
			c-6.977-0.013-13.957-0.007-20.934,0.003c-3.952,0.006-7.908,0.005-11.858,0.029c-0.133,0.001-0.217,0.014-0.252,0.031
			c-0.099,0.003-0.186,0.016-0.187,0.038c-0.048,1.521-0.004,3.043-0.02,4.564c-0.002,0.208,0.002,0.416,0.004,0.624
			c0.003,0.219-0.047,0.441,0.059,0.66c0.012,0.025,0.172,0.029,0.238,0.013c0.016,0.001,0.031,0.002,0.05,0.003
			c1.736,0.037,3.502,0.034,5.249,0.044c1.784,0.01,3.568,0.016,5.352,0.023c3.5,0.012,7,0.024,10.501,0.028
			c7.035,0.009,14.072,0.008,21.107-0.015c3.98-0.013,7.316-0.039,11.296-0.047C395.453,325.676,395.716,325.669,395.76,325.586z"/>
		<path style="fill:#4C5980;" d="M382.638,339.554c0,0-0.002,0-0.003,0c0.124-0.363,0.047-0.735,0.054-1.098
			c0.008-0.38,0.006-0.761,0.011-1.141c0.01-0.761,0.03-1.521,0.04-2.282c0.006-0.428,0.013-0.856,0.01-1.284
			c0-0.024-0.076-0.038-0.159-0.04c-0.032-0.005-0.069-0.009-0.117-0.009c-5.323-0.032-10.647-0.041-15.971-0.054
			c-5.297-0.013-10.597-0.007-15.894,0.003c-3.001,0.006-6.004,0.005-9.003,0.029c-0.101,0.001-0.165,0.014-0.191,0.031
			c-0.075,0.003-0.141,0.016-0.142,0.038c-0.036,1.521-0.003,3.043-0.015,4.564c-0.002,0.208,0.002,0.416,0.003,0.624
			c0.002,0.219-0.036,0.441,0.045,0.66c0.009,0.025,0.13,0.029,0.181,0.013c0.012,0.001,0.024,0.002,0.038,0.003
			c1.318,0.037,2.659,0.035,3.985,0.044c1.354,0.01,2.709,0.016,4.064,0.023c2.657,0.012,5.315,0.024,7.973,0.028
			c5.342,0.009,10.684,0.008,16.025-0.015c3.022-0.013,5.555-0.039,8.577-0.047C382.405,339.644,382.605,339.638,382.638,339.554z"
			/>
		<path style="fill:#D66EC0;" d="M443.382,284.227c-3.928,0-3.934,6.104,0,6.104C447.31,290.331,447.316,284.227,443.382,284.227z"
			/>
		<path style="fill:#FFFFFF;" d="M433.058,284.227c-3.928,0-3.934,6.104,0,6.104C436.985,290.331,436.992,284.227,433.058,284.227z"
			/>
		<path style="fill:#FFFFFF;" d="M422.733,284.227c-3.928,0-3.934,6.104,0,6.104C426.661,290.331,426.667,284.227,422.733,284.227z"
			/>
	</g>
	<g>
		<g>
			<path style="fill:#4C5980;" d="M370.836,41.108c0,0-0.003,0-0.004,0c0.19-0.363,0.072-0.735,0.083-1.098
				c0.012-0.38,0.009-0.761,0.016-1.141c0.015-0.761,0.045-1.521,0.062-2.282c0.009-0.428,0.021-0.856,0.016-1.284
				c0-0.024-0.117-0.038-0.244-0.04c-0.049-0.005-0.106-0.009-0.18-0.009c-8.166-0.032-16.334-0.041-24.502-0.054
				c-8.127-0.012-16.258-0.007-24.385,0.003c-4.604,0.006-9.211,0.005-13.813,0.029c-0.155,0.001-0.253,0.014-0.293,0.031
				c-0.116,0.003-0.217,0.015-0.217,0.038c-0.056,1.521-0.004,3.043-0.023,4.564c-0.003,0.208,0.003,0.416,0.005,0.624
				c0.003,0.219-0.055,0.441,0.069,0.66c0.014,0.025,0.2,0.029,0.278,0.013c0.019,0.001,0.036,0.002,0.058,0.003
				c2.022,0.037,4.079,0.034,6.114,0.044c2.078,0.01,4.156,0.016,6.235,0.023c4.077,0.012,8.154,0.024,12.232,0.028
				c8.195,0.009,16.391,0.008,24.586-0.015c4.636-0.013,8.522-0.039,13.158-0.047C370.478,41.197,370.785,41.191,370.836,41.108z"/>
			<path style="fill:#4C5980;" d="M351.657,52.849c0,0-0.002,0-0.003,0c0.133-0.363,0.05-0.735,0.058-1.098
				c0.008-0.38,0.006-0.761,0.012-1.141c0.011-0.761,0.031-1.521,0.043-2.282c0.007-0.428,0.014-0.856,0.011-1.284
				c0-0.024-0.082-0.038-0.17-0.04c-0.034-0.005-0.074-0.009-0.126-0.009c-5.699-0.032-11.4-0.041-17.101-0.054
				c-5.672-0.013-11.346-0.007-17.019,0.003c-3.213,0.006-6.429,0.005-9.64,0.029c-0.108,0.001-0.176,0.014-0.205,0.031
				c-0.081,0.003-0.151,0.016-0.152,0.038c-0.039,1.521-0.003,3.043-0.016,4.564c-0.002,0.208,0.002,0.416,0.004,0.624
				c0.002,0.219-0.038,0.441,0.048,0.66c0.01,0.025,0.139,0.029,0.194,0.013c0.013,0.001,0.025,0.002,0.041,0.003
				c1.411,0.037,2.847,0.034,4.267,0.044c1.45,0.01,2.901,0.016,4.351,0.023c2.845,0.012,5.691,0.024,8.537,0.028
				c5.72,0.009,11.44,0.008,17.159-0.015c3.235-0.013,5.948-0.039,9.183-0.047C351.407,52.939,351.621,52.932,351.657,52.849z"/>
			<path style="fill:#4C5980;" d="M362.155,64.59c0,0-0.002,0-0.003,0c0.164-0.363,0.062-0.735,0.072-1.098
				c0.01-0.38,0.008-0.761,0.014-1.141c0.013-0.761,0.039-1.521,0.053-2.282c0.008-0.428,0.018-0.856,0.013-1.284
				c0-0.024-0.101-0.037-0.21-0.04c-0.042-0.005-0.091-0.009-0.156-0.009c-7.049-0.032-14.101-0.041-21.152-0.054
				c-7.016-0.013-14.035-0.007-21.05,0.003c-3.974,0.006-7.952,0.005-11.924,0.029c-0.134,0.001-0.218,0.014-0.253,0.031
				c-0.1,0.003-0.187,0.015-0.188,0.038c-0.048,1.521-0.004,3.043-0.02,4.564c-0.002,0.208,0.002,0.416,0.005,0.624
				c0.003,0.219-0.047,0.441,0.06,0.66c0.012,0.024,0.173,0.029,0.24,0.013c0.016,0.001,0.031,0.002,0.05,0.003
				c1.746,0.037,3.521,0.035,5.278,0.044c1.794,0.01,3.588,0.016,5.382,0.022c3.519,0.012,7.039,0.024,10.559,0.028
				c7.075,0.009,14.15,0.008,21.224-0.015c4.002-0.013,7.357-0.039,11.359-0.047C361.846,64.68,362.111,64.674,362.155,64.59z"/>
		</g>
		<g>
			<path style="fill:#4C5980;" d="M264.024,449.731c0,0-0.002,0-0.003,0c0.131-0.488,0.05-0.987,0.058-1.475
				c0.008-0.511,0.006-1.022,0.011-1.533c0.01-1.022,0.031-2.044,0.042-3.066c0.007-0.575,0.014-1.15,0.011-1.724
				c0-0.033-0.081-0.051-0.168-0.054c-0.034-0.007-0.073-0.012-0.124-0.013c-5.633-0.043-11.267-0.055-16.901-0.072
				c-5.606-0.017-11.214-0.009-16.82,0.004c-3.175,0.008-6.354,0.007-9.528,0.039c-0.107,0.001-0.174,0.019-0.202,0.042
				c-0.08,0.004-0.149,0.021-0.15,0.051c-0.038,2.044-0.003,4.088-0.016,6.132c-0.002,0.279,0.002,0.559,0.004,0.838
				c0.002,0.294-0.038,0.593,0.048,0.887c0.01,0.033,0.138,0.039,0.192,0.017c0.013,0.001,0.025,0.003,0.04,0.004
				c1.395,0.05,2.814,0.046,4.217,0.059c1.433,0.013,2.867,0.022,4.3,0.03c2.812,0.017,5.625,0.032,8.437,0.038
				c5.653,0.012,11.307,0.01,16.959-0.02c3.198-0.017,5.878-0.053,9.076-0.063C263.778,449.852,263.989,449.843,264.024,449.731z"/>
			<path style="fill:#4C5980;" d="M279.211,464.597c0,0-0.002,0-0.004,0c0.176-0.488,0.067-0.987,0.078-1.475
				c0.011-0.511,0.008-1.022,0.015-1.533c0.014-1.022,0.042-2.044,0.057-3.065c0.009-0.575,0.019-1.15,0.014-1.725
				c0-0.033-0.109-0.05-0.227-0.054c-0.045-0.007-0.098-0.012-0.167-0.013c-7.586-0.043-15.174-0.055-22.762-0.072
				c-7.55-0.017-15.103-0.009-22.653,0.004c-4.277,0.008-8.557,0.007-12.832,0.039c-0.144,0.001-0.235,0.019-0.273,0.042
				c-0.107,0.004-0.201,0.021-0.202,0.051c-0.052,2.044-0.004,4.088-0.022,6.132c-0.002,0.279,0.002,0.559,0.005,0.838
				c0.003,0.294-0.051,0.593,0.064,0.887c0.013,0.033,0.186,0.039,0.258,0.017c0.017,0.001,0.034,0.003,0.054,0.004
				c1.879,0.05,3.789,0.046,5.68,0.059c1.93,0.013,3.861,0.022,5.792,0.03c3.787,0.017,7.575,0.032,11.363,0.038
				c7.613,0.012,15.227,0.01,22.84-0.02c4.307-0.017,7.917-0.052,12.224-0.063C278.879,464.718,279.164,464.709,279.211,464.597z"/>
		</g>
	</g>
	<g>
		<path style="fill:#4C5980;" d="M452.902,160.839c-0.084-8.262-0.103-16.526-0.158-24.788c-0.032-4.722-0.063-9.443-0.095-14.165
			c-0.001-0.096-0.019-0.178-0.049-0.249c0.045-0.413-0.156-0.864-0.624-0.861c-15.729,0.124-31.464,0.25-47.19,0.56
			c-15.729,0.31-31.461,0.372-47.19,0.688c-8.833,0.177-17.7,0.024-26.523,0.507c-0.05,0.003-0.09,0.02-0.131,0.036
			c-0.195-0.399-0.827-0.325-0.83,0.239c-0.091,16.605,0.354,33.207,0.422,49.812c0.01,2.372,0.059,4.744,0.101,7.116
			c0.041,2.34,0.225,4.788,0.016,7.116c-0.012,0.132,0.012,0.241,0.052,0.335c-0.088,0.273,0.033,0.635,0.369,0.645
			c7.854,0.232,15.738-0.072,23.595-0.136c7.865-0.064,15.731-0.034,23.595-0.139c15.73-0.21,31.46-0.424,47.19-0.563
			c8.841-0.078,17.683-0.205,26.523-0.342c0.351-0.005,0.549-0.268,0.612-0.571c0.209,0.013,0.425-0.134,0.432-0.452
			C453.222,177.38,452.986,169.088,452.902,160.839z"/>
		<path style="fill:#FFFFFF;" d="M385.499,121.289c-5.223-0.094-10.446-0.112-15.669-0.051c-2.556,0.03-5.112,0.08-7.667,0.149
			c-2.525,0.068-5.225-0.127-7.711,0.436c-0.208,0.047-0.133,0.377,0.045,0.401c2.499,0.34,5.151-0.054,7.664-0.132
			c2.611-0.081,5.222-0.141,7.834-0.181c5.167-0.079,10.335-0.074,15.502,0.008C385.843,121.925,385.844,121.295,385.499,121.289z"
			/>
		<path style="fill:#FFFFFF;" d="M400.749,121.138c-0.891-0.252-1.955-0.072-2.871-0.071c-1.018,0.001-2.036,0.003-3.054,0.004
			c-2.037,0.002-4.074-0.015-6.11,0.055c-0.282,0.01-0.297,0.511-0.01,0.519c2.036,0.061,4.072,0.035,6.108,0.029
			c1.018-0.003,2.036-0.006,3.055-0.009c0.912-0.003,1.987,0.175,2.874-0.08C400.923,121.532,400.942,121.192,400.749,121.138z"/>
		<text transform="matrix(1 0 0 1 344.0046 172.4271)" style="fill:#FFFFFF; font-family:'Rubik-Bold'; font-size:51.131px;">SSL</text>
	</g>
</g>
</svg>
